<?xml version="1.0" encoding="UTF-8"?>
<svg viewBox="0 0 640 480" xmlns="http://www.w3.org/2000/svg">
 <g stroke-linecap="round" stroke-linejoin="round">
  <path transform="rotate(-.21569 231.56 431.65)" d="m341.09 431.65c0.018036 60.508-49.028 109.57-109.54 109.57-60.508 0-109.56-49.061-109.54-109.57-0.018036-60.508 49.028-109.57 109.54-109.57 60.508 0 109.56 49.061 109.54 109.57z" fill="#fc0" stroke="#000" stroke-width="3.287"/>
  <g stroke-width="4">
   <path transform="rotate(-.21569 161.21 485.64)" d="m168.87 481.22c4.1953 7.2763 4.1664 15.154-0.064758 17.592-4.2311 2.438-11.061-1.4875-15.252-8.7662-4.1953-7.2763-4.1664-15.154 0.064758-17.592 4.2311-2.438 11.061 1.4875 15.252 8.7662z" fill="#784421"/>
   <path transform="rotate(-.21569 231.75 467.63)" d="m334.61 394.07c0.076782 1.6816 0.12497 3.3933 0.12497 5.0938 0 60.464-49.067 109.53-109.53 109.53-47.262 0-87.591-29.999-102.94-71.969 2.6535 58.112 50.674 104.47 109.44 104.47 60.464 0 109.53-49.067 109.53-109.53 0-13.202-2.3381-25.87-6.625-37.594z" fill-opacity=".314"/>
   <g fill="#784421">
    <path transform="rotate(-.21569 152.05 401.88)" d="m165.1 405.08c-2.7872 11.384-10.893 19.181-18.102 17.414-7.209-1.7675-10.789-12.43-7.9947-23.812 2.7872-11.384 10.893-19.181 18.102-17.414 7.209 1.7675 10.789 12.43 7.9947 23.812z"/>
    <path transform="rotate(-.21569 214.06 438.77)" d="m238.46 438.77c0.006561 14.259-10.918 25.822-24.395 25.822-13.478 0-24.402-11.563-24.395-25.822-0.006561-14.259 10.918-25.822 24.395-25.822 13.478 0 24.402 11.563 24.395 25.822h3.1e-5z"/>
    <path transform="rotate(-.21569 289.68 461.15)" d="m301.7 461.15c0.003235 8.2038-5.3796 14.856-12.021 14.856-6.6412 0-12.024-6.6526-12.021-14.856-0.003235-8.2038 5.3796-14.856 12.021-14.856 6.6412 0 12.024 6.6526 12.021 14.856z"/>
   </g>
  </g>
 </g>
 <g transform="rotate(26.334 269.39 296.97)" stroke-width="4">
  <g stroke-linecap="round" stroke-linejoin="round">
   <path transform="rotate(-5.1515 251.85 300.15)" d="m211.85 366.15c24.5-37.901 20-128.73 20-128.73l60-3.2673s-1.5 91.485 23.5 130.04" fill="#fc0" fill-rule="evenodd" stroke="#000"/>
   <path transform="rotate(-7.5893 271.12 264.16)" d="m281.64 264.16c0.002838 8.2038-4.7083 14.856-10.521 14.856-5.8125 0-10.524-6.6526-10.521-14.856-0.002808-8.2038 4.7083-14.856 10.521-14.856 5.8125 0 10.524 6.6527 10.521 14.856h3.1e-5z" fill="#784421"/>
  </g>
  <path transform="rotate(-2.8006 271.27 290.32)" d="m289.52 225.28l-17.156 0.9375-42.844 2.3438s0.24112 4.8545 0.3125 12.562c13.159 8.2563 26.42 13.062 35.719 13.062 3.3283 0 7.1052-0.5723 11.156-1.6562 6.1863 33.341 17.668 80.343 36.031 102.5l-1 0.3438 1.2812-0.0312c-17.207-26.536-21.834-78.152-23.062-107.75-0.13916-3.3512-0.24539-6.4361-0.3125-9.1562-0.050995-2.1738-0.075134-4.0973-0.09375-5.7812-0.01712-1.3569-0.027161-2.3769-0.03125-3.375-0.0047-1.5501-0.006012-1.748 0-2.4062 0.002472-1.0446 0-1.5938 0-1.5938z" fill-opacity=".314" fill-rule="evenodd"/>
  <path transform="rotate(-.21569 253.59 315.53)" d="m266.67 315.53c0.00351 11.72-5.8543 21.224-13.082 21.224-7.2272 0-13.085-9.5038-13.082-21.224-0.00351-11.72 5.8543-21.224 13.082-21.224 7.2272 0 13.085 9.5038 13.082 21.224z" fill="#784421" stroke-linecap="round" stroke-linejoin="round"/>
 </g>
 <g stroke-linecap="round">
  <g stroke-linejoin="round">
   <g stroke-width="4">
    <path transform="rotate(-.21569 289.63 386.39)" d="m308.72 386.39c0.005157 11.72-8.5441 21.224-19.092 21.224s-19.097-9.5038-19.092-21.224c-0.005157-11.72 8.5441-21.224 19.092-21.224s19.097 9.5038 19.092 21.224z" fill="#784421"/>
    <g stroke="#000">
     <path transform="rotate(-7.5893 299.91 162.71)" d="m299.98 80.867c-22.79 0-41.278 6.9679-54.875 18.594-0.57065-0.42628-1.3434-0.80539-2.3438-1.25-55.508-10.607-74.605 25.093-75.312 30.75-0.70712 5.6569 38.515 14.485 59.375-6.375 0.27075-0.27075 0.45454-0.45474 0.71875-0.71875-6.1713 12.024-9.4062 25.97-9.4062 40.844 0 45.174 56.126 81.844 81.844 81.844 26.717 0 81.844-36.669 81.844-81.844 0-15.041-3.463-29.135-9.9375-41.25 0.40784 0.40733 0.70123 0.70122 1.125 1.125 20.86 20.86 60.082 12.032 59.375 6.375-0.70709-5.6568-19.773-41.357-75.281-30.75-1.1728 0.52126-2.0848 0.95218-2.6562 1.4688-13.735-11.746-32.207-18.812-54.469-18.812z" fill="#fc0"/>
     <g fill="#fff">
      <path transform="rotate(-7.5893 272.34 154.28)" d="m295 154.28c0.003723 12.519-10.144 22.67-22.663 22.67s-22.666-10.151-22.663-22.67c-0.003754-12.519 10.144-22.67 22.663-22.67s22.666 10.151 22.663 22.67z"/>
      <path transform="rotate(-7.5893 324.61 147.32)" d="m347.27 147.32c0.003723 12.519-10.144 22.67-22.663 22.67s-22.666-10.151-22.663-22.67c-0.003723-12.519 10.144-22.67 22.663-22.67s22.666 10.151 22.663 22.67z"/>
     </g>
    </g>
   </g>
   <g stroke-width="47.667">
    <path transform="rotate(-11.147 328.64 135.45)" d="m336.2 135.45c0.001251 4.173-3.3813 7.5565-7.5543 7.5565s-7.5555-3.3835-7.5543-7.5565c-0.001251-4.173 3.3813-7.5565 7.5543-7.5565s7.5555 3.3835 7.5543 7.5565z"/>
    <path transform="rotate(-7.5893 278.48 143.5)" d="m286.03 143.5c0.001251 4.173-3.3813 7.5565-7.5543 7.5565s-7.5555-3.3835-7.5543-7.5565c-0.001251-4.173 3.3813-7.5565 7.5543-7.5565s7.5555 3.3835 7.5543 7.5565z"/>
   </g>
   <path transform="rotate(-12.665 303.3 183.9)" d="m377.23 123.53c1.7546 7.6324 2.625 15.722 2.625 24.125 0 45.174-55.127 81.844-81.844 81.844-20.706 3.1e-5 -61.097-23.756-76.062-56.594 7.6158 40.246 57.172 71.375 80.875 71.375 26.717 0 81.844-36.669 81.844-81.844 0-14.08-2.4127-27.332-7.4375-38.906z" fill-opacity=".314" stroke-width="4"/>
   <g stroke-width="47.667">
    <path transform="rotate(-7.5893 317.79 210.38)" d="m323.03 213.4c-2.2927 3.9731-6.5002 5.8386-9.3968 4.1663s-3.3847-6.2489-1.0903-10.221c2.2927-3.9731 6.5003-5.8386 9.3968-4.1663 2.8966 1.6723 3.3847 6.2489 1.0903 10.221z"/>
    <path transform="rotate(-7.5893 295.73 213.31)" d="m290.49 216.34c2.2927 3.9731 6.5003 5.8386 9.3968 4.1663 2.8966-1.6723 3.3847-6.2489 1.0903-10.221-2.2927-3.9731-6.5002-5.8386-9.3968-4.1663-2.8965 1.6723-3.3847 6.2489-1.0903 10.221z"/>
   </g>
  </g>
  <g stroke="#000" stroke-width="4">
   <path transform="rotate(-7.5893 258.67 88.144)" d="m256.02 101.58c5.6568-10.253-6.0104-22.627-6.0104-22.627l17.324-4.2427s-2.4748 15.556 6.7175 21.213" fill="#fc0" fill-rule="evenodd"/>
   <path transform="rotate(-7.5893 255.19 72.859)" d="m270.57 72.859c0.00415 8.4968-6.8827 15.387-15.38 15.387-8.4968 0-15.384-6.8902-15.38-15.387-0.00415-8.4968 6.8828-15.387 15.38-15.387 8.4969 0 15.384 6.8903 15.38 15.387z" fill="#784421" stroke-linejoin="round"/>
  </g>
 </g>
 <g stroke="#000" stroke-width="4">
  <path transform="rotate(-7.5893 387.25 104.07)" d="m360.32 92.755c35.782-4.5675 52.524 16.965 53.837 20.227 1.3131 3.2625-35.125 10.114-53.837-20.227z" fill="#d4aa00" fill-rule="evenodd" stroke-linejoin="round"/>
  <g stroke-linecap="round">
   <path transform="rotate(-7.5893 320 79.973)" d="m322.65 93.408c-5.6569-10.253 6.0104-22.627 6.0104-22.627l-17.324-4.2426s2.4749 15.556-6.7175 21.213" fill="#fc0" fill-rule="evenodd"/>
   <path transform="rotate(-7.5893 318.62 64.406)" d="m334 64.406c0.00415 8.4968-6.8827 15.387-15.38 15.387-8.4968 0-15.384-6.8902-15.38-15.387-0.00415-8.4968 6.8827-15.387 15.38-15.387 8.4969 0 15.384 6.8903 15.38 15.387z" fill="#784421" stroke-linejoin="round"/>
  </g>
  <g stroke-linejoin="round">
   <path transform="rotate(-7.5893 199.91 129.03)" d="m226.84 117.72c-35.782-4.5675-52.524 16.965-53.836 20.227-1.3131 3.2625 35.125 10.114 53.836-20.227z" fill="#d4aa00" fill-rule="evenodd"/>
   <path transform="rotate(-.21569 265.85 534.71)" d="m226.11 546.06c0 9.0908 14.665 9.3814 32.735 9.3814s32.735 0.69348 32.735-9.3814c0-17.716-14.665-32.094-32.735-32.094s-32.735 14.378-32.735 32.094z" fill="#784421" stroke-linecap="round"/>
   <path transform="rotate(-.21569 273.74 541.59)" d="m278.46 554.81c0-16.368-9.4428-26.44-9.4428-26.44s3.7771 13.85 3.1476 26.44h6.2952z" fill-opacity=".314" fill-rule="evenodd"/>
   <path transform="rotate(-.21569 265.85 534.71)" d="m211.11 546.36c0 9.0908-14.665 9.3814-32.735 9.3814s-32.735 0.69348-32.735-9.3814c0-17.716 14.665-32.094 32.735-32.094s32.735 14.378 32.735 32.094z" fill="#784421" stroke-linecap="round"/>
   <path transform="rotate(-.21569 177.54 541.96)" d="m172.81 555.17c0-16.368 9.4428-26.44 9.4428-26.44s-3.7771 13.85-3.1476 26.44h-6.2952z" fill-opacity=".314" fill-rule="evenodd"/>
  </g>
 </g>
</svg>
